<?xml version="1.0" encoding="UTF-8" standalone="no"?>
<!DOCTYPE svg PUBLIC "-//W3C//DTD SVG 1.1//EN" "http://www.w3.org/Graphics/SVG/1.1/DTD/svg11.dtd">
<svg width="100%" height="100%" viewBox="0 0 1001 1001" version="1.1" xmlns="http://www.w3.org/2000/svg" xmlns:xlink="http://www.w3.org/1999/xlink" xml:space="preserve" xmlns:serif="http://www.serif.com/" style="fill-rule:evenodd;clip-rule:evenodd;stroke-linecap:round;stroke-linejoin:round;stroke-miterlimit:1.5;">
    <g transform="matrix(1,0,0,1,-78.9118,-21.5214)">
        <g id="Layer3">
            <path d="M657.716,500.5C741.371,641.699 526.529,759.011 403.694,744.138C402.682,744.015 398.35,743.761 391.957,743.682C364.873,743.35 301.162,744.178 301.162,744.178L296.599,891.449C296.599,891.449 369.537,892.856 406.808,893.508C418.047,893.705 426.05,893.669 427.817,893.833C611.907,910.918 906.008,755.678 815,500.5C815,500.5 944.894,607.21 961.865,586.148C981.734,561.489 747.627,226.01 721.399,225.353C703.386,224.903 438.284,553.547 454.533,566.253C476.39,583.344 657.716,500.5 657.716,500.5Z" style="fill:white;stroke:black;stroke-width:33.86px;"/>
        </g>
    </g>
</svg>
